<?xml version="1.0" standalone="no"?>
<!DOCTYPE svg PUBLIC "-//W3C//DTD SVG 20010904//EN"
 "http://www.w3.org/TR/2001/REC-SVG-20010904/DTD/svg10.dtd">
<svg version="1.0" xmlns="http://www.w3.org/2000/svg"
 width="512.000000pt" height="512.000000pt" viewBox="0 0 512.000000 512.000000"
 preserveAspectRatio="xMidYMid meet">
<metadata>
Created by potrace 1.11, written by Peter Selinger 2001-2013
</metadata>
<g transform="translate(0.000000,512.000000) scale(0.100000,-0.100000)"
fill="#000000" stroke="none">
<path d="M838 4031 c18 -16 101 -94 184 -173 82 -79 162 -154 177 -168 15 -14
99 -93 186 -176 88 -83 176 -166 195 -184 19 -18 104 -98 189 -179 85 -80 162
-153 171 -161 9 -8 52 -49 96 -90 43 -41 148 -140 233 -220 84 -80 174 -165
200 -189 25 -24 45 -48 43 -53 -1 -4 2 -7 7 -6 5 2 45 -32 90 -74 44 -42 81
-73 81 -69 0 4 -21 66 -46 137 -25 71 -56 158 -69 194 -12 36 -48 137 -79 225
-66 184 -98 275 -116 325 -6 19 -15 44 -20 55 -8 17 -17 46 -27 80 -1 6 -16
48 -33 95 -17 47 -42 117 -56 155 -14 39 -28 80 -31 93 -3 12 -8 24 -12 26 -3
2 -71 22 -151 44 -416 116 -632 175 -700 193 -41 11 -82 22 -90 26 -8 3 -22 7
-31 9 -8 2 -98 26 -200 54 -101 28 -193 53 -204 56 -15 4 -11 -2 13 -25z"/>
<path d="M3874 3659 c7 -38 10 -50 31 -134 8 -33 17 -70 19 -83 3 -13 9 -38
15 -55 5 -18 17 -67 26 -110 10 -42 20 -79 24 -81 4 -3 27 14 52 37 65 60 197
178 243 218 22 19 55 48 75 66 l34 31 -69 20 c-38 11 -148 41 -244 66 -96 26
-183 50 -194 53 -16 5 -18 1 -12 -28z"/>
<path d="M3620 3508 c-80 -83 -197 -205 -262 -272 -64 -66 -114 -124 -112
-127 8 -13 764 -519 775 -519 4 0 0 30 -11 68 -10 37 -32 128 -50 202 -81 345
-190 794 -193 797 -2 1 -68 -66 -147 -149z"/>
<path d="M2462 3243 c136 -384 162 -458 188 -528 10 -27 51 -142 90 -255 116
-330 108 -311 133 -300 12 5 72 24 132 41 61 17 157 44 215 61 58 16 112 31
120 33 8 2 71 21 140 41 69 20 132 38 140 38 9 1 20 5 25 8 9 5 215 65 252 73
10 2 34 10 54 17 l37 13 -300 200 c-166 110 -306 205 -312 210 -6 6 -36 26
-66 45 -30 19 -59 38 -65 43 -22 18 -879 589 -890 594 -7 2 41 -148 107 -334z"/>
<path d="M3910 2355 c-25 -7 -85 -25 -135 -40 -49 -15 -99 -30 -110 -32 -11
-3 -137 -39 -280 -80 -143 -41 -300 -86 -350 -100 -49 -14 -107 -30 -128 -37
l-39 -11 7 -250 c4 -137 8 -293 10 -345 2 -52 4 -155 6 -227 2 -73 6 -133 10
-133 4 0 14 11 22 24 9 13 22 29 29 37 8 8 164 194 348 414 183 220 347 416
364 436 17 19 40 46 51 60 82 100 211 255 215 259 10 10 32 40 29 39 -2 0 -24
-7 -49 -14z"/>
<path d="M2634 1894 c-71 -52 -142 -105 -158 -117 -16 -12 -157 -118 -315
-235 -157 -118 -290 -218 -296 -223 -9 -9 171 -7 660 6 55 2 136 4 180 4 l81
1 -2 98 c-5 211 -16 557 -18 559 -2 2 -61 -40 -132 -93z"/>
</g>
</svg>
